<?xml version="1.0" encoding="utf-8"?>
<!-- Generator: Adobe Illustrator 22.1.0, SVG Export Plug-In . SVG Version: 6.00 Build 0)  -->
<svg version="1.1" id="Layer_1" xmlns="http://www.w3.org/2000/svg" xmlns:xlink="http://www.w3.org/1999/xlink" x="0px" y="0px"
	 viewBox="0 0 343 188.7" style="enable-background:new 0 0 343 188.7;" xml:space="preserve">
<style type="text/css">
	.st0{fill:#FFFFFF;}
	.st1{fill:none;}
</style>
<path class="st0" d="M133.5,41.1c0,0-0.5,3.8-0.5,3.8c0,0,0.3,0-12.8,0h-12.9c0,0-0.5-3.8-0.5-3.8h13.4H133.5 M135.8,26.5
	c0,0-0.7-4.1-3.6-3c0,0-3.2,1.4-1,6.1c0,0,0.4-1.5,1.8-1.4c0,0,2.6,0.3,1.3,3.6c0,0-1,2.3-3,1.8c0,0-2.9-0.3-2.9-4.6
	c0,0-2,3.8-4.3,3.5c0,0-2.9,0.3-2.8-3.1c0,0,0.2-2.5,2.3-2.9c0,0,2.5-0.3,2.1,2.1c0,0,5.8-4.9,0.5-7.8c0,0-2.3-1-4.2,1.2
	c0,0,1-1.2,1.1-2.8c0,0,0.9-2.9-2.7-4.9v0c0,0,0,0,0,0c0,0,0,0,0,0v0c-3.6,2-2.7,4.9-2.7,4.9c0.1,1.6,1.1,2.8,1.1,2.8
	c-2-2.3-4.3-1.2-4.3-1.2c-5.3,3,0.5,7.8,0.5,7.8c-0.5-2.4,2.1-2.1,2.1-2.1c2.1,0.4,2.3,2.9,2.3,2.9c0,3.4-2.9,3.1-2.9,3.1
	C114,32.8,112,29,112,29c0,4.3-2.9,4.6-2.9,4.6c-2,0.5-3-1.8-3-1.8c-1.3-3.3,1.3-3.6,1.3-3.6c1.4-0.1,1.8,1.4,1.8,1.4
	c2.2-4.7-1-6.1-1-6.1c-2.9-1.1-3.6,3-3.6,3c-1.9-4.8-5.6-3.6-5.6-3.6c5.6,7.6,7.6,14.8,7.6,14.8h27.4c0,0,1.9-7.2,7.6-14.8
	C141.5,22.9,137.7,21.6,135.8,26.5 M106.5,48.1h13.7v3.8h-13.7c0,0-1.9,0-1.9-1.9C104.6,50,104.6,48.1,106.5,48.1 M135.7,50
	c0,1.9-1.9,1.9-1.9,1.9h-13.7v-3.8h13.7C135.7,48.1,135.7,50,135.7,50"/>
<path class="st0" d="M9.7,41.4c-2.9,0-2.9-4.1,0-4.1l18.7,0c2.9,0,2.9,4.1,0,4.1C28.4,41.4,9.7,41.4,9.7,41.4 M12.8,48.1
	c0,0,12.5,0,12.5,0c2.9,0,2.9-4.1,0-4.1H12.8C9.9,44,9.9,48.1,12.8,48.1 M15.9,54.8h6.4c2.8,0,2.8-4.1,0-4.1h-6.4
	C13,50.7,13,54.8,15.9,54.8 M8.4,34.7c0,0-2.9-2.5-0.5-8.2c0,0,2.2,3.3,6,3.9c0,0,1.6-6.1,5.7-6.9c0,0-1.5,3.8,2.4,7
	c0,0,3.4-4.8,7.7-4.8c0,0-2.4,2.4-1,4.7c0,0,1.3,2.6-0.2,4.3c0,0,2.7,0,4.7-1.7c0,0,2.9-1.7,1.6-8.1c0,0-0.7-4.3,6.1-5.9
	c0,0-7.8-3.3-15.7,2.2c0,0-3.8-5.6,4-10.1c0,0-13-1.1-18.7,11.4c0,0-4.8-2.4-1.6-8.3c0,0-8.9,3.3-8.1,13.8
	C0.6,27.9,0.8,34.7,8.4,34.7"/>
<path class="st0" d="M79.5,31.6c0,0-1.3-0.8-0.6-2.3c0,0,0.5-1.6-0.5-2.9c0,0-1.2-1.4-2.6-0.4l-0.1,0.1c0,0,0.7-1.8-1.2-2.6
	c0,0-1.2-0.7-3.1,0.6c0,0-1.2,1-2.4-0.2c0,0-1.4-1-2.9-0.4c0,0-1.7,0.7-1.2,2.4L65,26c-0.2-0.1-1.5-1.1-2.8,0.3c0,0-1,0.9-0.4,3.2
	c0,0,0.5,1.4-0.9,2.2c0,0-1.4,1.1-1.3,2.6c0,0,0.1,1.8,1.9,1.9l0.1,0c0,0-1.6,1.1-0.6,2.8c0,0,0.6,1.2,2.9,1.3c0,0,1.5-0.1,1.8,1.5
	c0,0,0.6,1.6,2.1,2c0,0,1.8,0.4,2.4-1.2v-0.2c0,0,0.5,1.9,2.4,1.4c0,0,1.4-0.1,2.2-2.4c0,0,0.4-1.5,2-1.3c0,0,1.7-0.1,2.6-1.4
	c0,0,1-1.6-0.4-2.6l-0.1,0c0,0,1.9,0.1,2.1-1.9C81.1,34.4,81.3,33,79.5,31.6 M75.7,35.2c0,0-1,3.7-5.4,3.9v0c0,0-3.8,0.1-5.4-3.9
	l0,0c0,0-1.3-3.6,2.1-6.3l0,0c0,0,3-2.4,6.6,0l0,0C73.7,28.9,76.9,31,75.7,35.2l2.5,0.8L75.7,35.2z M67.7,33.5
	c0-1.5,1.2-2.7,2.7-2.7c1.5,0,2.7,1.2,2.7,2.7c0,1.5-1.2,2.7-2.7,2.7C68.9,36.1,67.7,34.9,67.7,33.5 M91.1,30.8c0,0-1.1-3.3-4.4-2.6
	c0,0,3-1.6,1.9-4.7c0,0-1.5-4.2-5.8-3.2c0,0-1.8,0.2-2.6-0.5l-0.6,0.9l0.6-0.9c0,0-0.9-0.5-1.3-2.3c0,0-0.4-4.4-4.8-4.5
	c0,0-3.5,0-3.9,3.3c0,0-0.6-3.3-3.8-3.3c0,0-4.4,0.1-4.8,4.5c0,0-0.4,1.7-1.3,2.3l0,0c0,0-0.8,0.7-2.6,0.5c0,0-4.3-1-5.8,3.2
	c0,0-1.1,3.3,2,4.7c0,0-3.4-0.4-4.3,2.6c0,0-1.3,4.2,2.8,6c0,0,1.6,0.9,1.8,1.9l0,0c0,0,0.4,1-0.3,2.6c0,0-2.3,3.8,1.2,6.5
	c0,0,2.8,2.1,5.1-0.4c0,0-1.4,3.1,1.2,4.9c0,0,3.6,2.5,6.6-0.8c0,0,1.3-1.2,2.4-1.1l0-2.2v2.2c0,0,1.1-0.1,2.4,1.1
	c0,0,2.9,3.3,6.6,0.8c0,0,2.8-2,1.2-5c0,0,2.5,2.3,5.1,0.4c0,0,3.5-2.7,1.2-6.5c0,0-0.7-1.6-0.3-2.6l-1.2-0.4l1.2,0.4
	c0,0,0.2-1,1.8-1.9C88.3,36.8,92.4,35,91.1,30.8 M85.4,35c0,0-0.5,2.5-3.1,2.4l0,0c0,0,0,0,0,0c0,0,0,0,0,0l0,0
	c0.2,0.1,2.1,1.6,1.1,3.7c0,0-1.2,2.6-4.3,1.9c0,0-1.9-0.4-2.4,1.7c0,0-0.4,3.2-3.2,3.5c0,0-2.5,0.3-3.2-2.2v0c0,0,0,0,0,0
	c0,0,0,0,0,0v0c0,0.1-0.8,2.5-3.2,2.2c0,0-2.8-0.3-3.2-3.5c0,0-0.2-1.9-2.4-1.7c0,0-3.1,0.6-4.3-1.9c0,0-1.1-2.3,1.1-3.7l0,0h0
	c0,0,0,0,0,0l0,0c-0.1,0-2.6,0-3.1-2.4c0,0-0.5-2.8,2.4-4.1c0,0,1.8-0.8,0.9-2.8c0,0-1.6-2.8,0.5-4.7c0,0,1.8-1.7,3.9-0.1l0,0
	c0,0,0,0,0,0c0,0,0,0,0,0l0,0c-0.1-0.2-0.8-2.5,1.3-3.7c0,0,2.5-1.4,4.6,1c0,0,1.3,1.4,2.9,0c0,0,2.2-2.4,4.6-1c0,0,2.2,1.2,1.3,3.7
	l0,0c0,0,0,0,0,0c0,0,0,0,0,0l0,0c0.1-0.1,2.1-1.6,3.9,0.1c0,0,2.1,1.9,0.5,4.7c0,0-1,1.7,0.9,2.8C83.1,30.9,86,32.2,85.4,35"/>
<path class="st0" d="M209.8,19.5c-0.7-3.4-3-3.7-4-3.7c0,0,0,1.2,0,1.2c1,0,1.3,0.8,1.3,1.2c-0.1,1.2-1.2,1.2-1.2,1.2
	c-0.7,0-1.2-0.6-1.2-1.2c0-0.7,0.5-1.2,1.1-1.3c0,0,0-1.2,0-1.2c-3-0.1-2.9,2.4-2.9,2.4c-0.7,0.6-2.2,1.1-2.2,1.1
	c-0.5,0.4-0.5,1.2-0.5,1.2c0,0.4,0,0.6,0,0.5c2.7-1.1,3.4-0.6,3.4-0.6l0.5,0.4c0.7,0.9,0.9,2.9,0.9,2.9c-0.5,3.9-3.8,3.9-3.3,9.5
	c0.4,9,12.5,11.3,12.5,11.3c0.7,1.4-0.9,4.4-0.9,4.4c-0.2,0.5-0.6,0.5-2.1,0.2c-0.8-0.1-1.3-0.3-1.3-0.3c-2.5-0.9-1.6,1.8-1.6,1.8
	c0,0,9.1,0,9.1,0c0.7-2.5-1-1.7-1-1.7c-1.7,0.8-1.5-0.1-1.5-0.1c0.5-2.7,1.8-4.4,1.8-4.4c-21.2-12.8-7.1-16.6-7.1-16.6
	s-9.6,4.8,11.9,16.5c5.4,3.3,5.6,3.4,7.3,4.3c1.2,0.8,1.5,0.3,1.5,0.3c0.2-0.4-0.4-1-0.4-1l-5-6.2c6.6,4.2,9.5,6.4,9.5,6.4
	c3.1,1.3,7.7-2.9,1.7-5.4C211.1,29.2,209.8,19.5,209.8,19.5"/>
<path class="st0" d="M184.9,25c0,0-4.4-1.2-7.6,3.4c0,0-2.6,3.3-3,10.1h-2.7c0,0,0.2-4.4,1.3-8.6c0,0,0.7-2.6,1.5-7
	c0,0,0.8-3.8-0.4-6.6c0,0-1.5-4.4-4.3-4.2c-2.8-0.2-4.3,4.2-4.3,4.2c-1.2,2.9-0.4,6.6-0.4,6.6c0.8,4.4,1.5,7,1.5,7
	c1.2,4.2,1.4,8.6,1.4,8.6h-2.7c-0.4-6.9-3-10.1-3-10.1c-3.2-4.6-7.6-3.4-7.6-3.4c-5.5,1.3-5.4,6.7-5.4,6.7c-0.1,4.8,2.8,6.4,2.8,6.4
	c2.5,1.6,5.2,1.1,5.2,1.1c-0.9-0.9-1.4-1.7-1.4-1.7c-1-2.2,0.9-3.3,0.9-3.3c1.9-1,3.5,0.7,3.5,0.7c1.5,1.5,1.9,3.6,1.9,3.6h-2
	c-1.8,0-1.8,2.1-1.8,2.1c0,2.1,1.8,2.1,1.8,2.1h2c-0.2,2.1-2.2,2-2.2,2c-2,0-3.3-2.6-3.3-2.6c-1.4,1.5-0.9,3.4-0.9,3.5
	c0.7,3.5,4.2,3.4,4.2,3.4c5.1,0,5.3-6.1,5.3-6.1h2.6c-0.6,6.9-3.8,8.1-3.8,8.1c1.4,3.5,5.6,3.3,5.6,3.3s4.2,0.2,5.6-3.3
	c0,0-3.3-1.2-3.8-8.1h2.6c0,0,0.2,6.2,5.3,6.1c0,0,3.5,0.1,4.2-3.4c0,0,0.5-1.9-0.9-3.5c0,0-1.3,2.6-3.2,2.6c0,0-2,0.2-2.2-2h2
	c0,0,1.8,0,1.8-2.1c0,0,0-2.1-1.8-2.1h-2c0,0,0.4-2.2,1.9-3.6c0,0,1.6-1.7,3.5-0.7c0,0,1.9,1,0.9,3.3c0,0-0.5,0.8-1.4,1.7
	c0,0,2.7,0.5,5.2-1.1c0,0,2.9-1.6,2.8-6.4C190.3,31.7,190.5,26.3,184.9,25"/>
<path class="st0" d="M4.5,100.9V80.3c0-0.9-0.9-2-1.9-2H0.2v-3.9h16.3v3.9h-5.2v22.9c0,8.3,4.1,10.4,10.1,10.4c5.9,0,10-2,10-10.4
	V78.3h-5.2v-3.9h14.6v3.9h-2.4c-0.9,0-1.8,1.1-1.8,2v20.6c0,10.6-5.4,15.5-15.9,15.5C10.6,116.4,4.5,111.5,4.5,100.9"/>
<path class="st0" d="M42.7,112.2h2.5c0.9,0,1.8-1.1,1.8-1.9v-30c0-0.9-1-2-1.8-2h-2.5v-3.9h11.6l19.1,30.4h0.2V78.3h-5.2v-3.9h14.7
	v3.9h-2.4c-0.9,0-1.8,1.1-1.8,2V116h-5.9L52.5,83.7h-0.2v28.5h5.3v3.8H42.7V112.2z"/>
<path class="st0" d="M84.9,112.2h3c1,0,1.8-1.1,1.8-1.9v-30c0-0.9-0.9-2-1.8-2h-3v-3.9h16.5v3.9h-3c-1,0-1.8,1.1-1.8,2v30
	c0,0.8,0.9,1.9,1.8,1.9h3v3.8H84.9V112.2z"/>
<path class="st0" d="M107.1,80.3c-0.4-1-1.4-2-2.4-2h-1.4v-3.9h15.9v3.9h-5.2l10.5,30.8h0.1l9.5-27c0.9-2.5,0.3-3.9-2-3.9h-2.6v-3.9
	H144v3.9h-1.3c-1.2,0-2.2,0.9-2.6,2.1l-13,35.6h-7.4L107.1,80.3z"/>
<path class="st0" d="M145.9,112.2h2.5c0.9,0,1.8-1.1,1.8-1.9v-30c0-0.9-1-2-1.8-2h-2.5v-3.9H178v11.1h-4.3l-0.7-6.8h-16v14.1h8.1
	l0.5-4.9h4.2v14h-4.2l-0.5-4.9H157v15h16.5l0.7-7.6h4.5V116h-32.8V112.2z"/>
<path class="st0" d="M196.9,93.7c6.4,0,8.8-2.4,8.8-7.4c0-5.3-2.6-7.7-8.8-7.7h-5.6v15.2H196.9z M180.1,112.2h2.5
	c0.9,0,1.8-1.1,1.8-1.9v-30c0-0.9-1-2-1.8-2h-2.5v-3.9h17c9.5,0,15.7,3.3,15.7,11.5c0,5.9-3.7,8.7-9.3,9.7v0.2
	c4.2,0.9,6.6,2.6,8.4,9.3l1.5,5.5c0.3,1.1,1.1,1.6,1.7,1.6h2v3.8h-9.7l-2.3-11.2c-1.1-5.4-3.2-7-8.6-7h-5.2v14.4h5.3v3.8h-16.5
	V112.2z"/>
<path class="st0" d="M224.6,114.5c-0.4,0-0.8,0.7-0.9,1.5h-4.5v-12.1h4.7l0.6,5c2.1,2,4.2,3.1,8.7,3.1c4.8,0,7.9-2.2,7.9-6.8
	c0-5.6-4.2-6.3-10.2-8c-7.3-2-10.9-5.1-10.9-12.1c0-7.5,5.5-11.2,13.2-11.2c4.2,0,6.3,1.1,7.5,1.7c0.4,0,0.8-0.7,0.9-1.3h4.3v11
	h-4.6l-0.6-4.2c-1.5-1.4-3.5-2.9-7.5-2.9c-4.3,0-7.3,1.7-7.3,6.2c0,4.9,3.8,5.7,9.5,7.2c8,2.1,12,4.7,12,12.4c0,8-4.9,12.2-14,12.2
	C228.6,116.4,226.2,115.4,224.6,114.5"/>
<path class="st0" d="M249.5,112.2h3c0.9,0,1.8-1.1,1.8-1.9v-30c0-0.9-0.9-2-1.8-2h-3v-3.9H266v3.9h-3c-1,0-1.8,1.1-1.8,2v30
	c0,0.8,0.9,1.9,1.8,1.9h3v3.8h-16.5V112.2z"/>
<path class="st0" d="M277.7,112.2h2.9c1,0,1.8-1.1,1.8-1.9V78.5h-8.9l-0.6,8.8h-4.5V74.4h34.8v12.9h-4.5l-0.6-8.8h-8.9v31.8
	c0,0.8,0.9,1.9,1.8,1.9h2.9v3.8h-16.3V112.2z"/>
<path class="st0" d="M316.3,112.2h2.9c0.9,0,1.8-1.1,1.8-1.9V98.8l-11.6-18.7c-0.7-1-1.5-1.8-2.6-1.8h-1.2v-3.9H321v3.9h-4.9
	l9.3,15.3h0.1l6.9-11.4c1.5-2.5,0.5-3.9-1.9-3.9h-1.9v-3.9h14.3v3.9h-1.1c-1.1,0-2,0.8-2.7,1.9l-11.2,18.3v11.8
	c0,0.8,0.9,1.9,1.8,1.9h2.9v3.8h-16.3V112.2z"/>
<path class="st0" d="M33.6,149.1c0-11.1-5.4-16.6-12.7-16.6c-7.4,0-12.8,5.6-12.8,16.6c0,11,5.4,16.6,12.8,16.6
	C28.2,165.6,33.6,160.1,33.6,149.1 M0.9,148.9c0-13.7,9.2-21.2,20-21.2c10.8,0,19.9,7.5,19.9,21.2c0,13.7-9.2,21.2-19.9,21.2
	C10.1,170.2,0.9,162.7,0.9,148.9"/>
<path class="st0" d="M41.5,165.9H44c0.9,0,1.8-1.1,1.8-1.9v-30c0-0.9-1-2-1.8-2h-2.5v-3.9h31.8v11.4h-4.3l-0.8-7.2H52.8v15h7.9
	l0.5-5.1h4.1v14.4h-4.1l-0.5-5.3h-7.9v14.4h5.3v3.8H41.5V165.9z"/>
<path class="st0" d="M87.7,165.9h2.5c0.9,0,1.8-1.1,1.8-1.9v-30c0-0.9-1-2-1.8-2h-2.5v-3.9h16.5v3.9H99v14.3h18.7v-14.3h-5.3v-3.9
	H129v3.9h-2.5c-0.9,0-1.9,1.1-1.9,2v30c0,0.8,1,1.9,1.9,1.9h2.5v3.8h-16.6v-3.8h5.3v-15.5H99v15.5h5.3v3.8H87.7V165.9z"/>
<path class="st0" d="M135.2,154.6V134c0-0.9-0.9-2-1.9-2h-2.4v-3.9h16.3v3.9H142V155c0,8.3,4.1,10.4,10.1,10.4c5.9,0,10-2,10-10.4
	v-22.9h-5.2v-3.9h14.6v3.9h-2.4c-0.9,0-1.8,1.1-1.8,2v20.6c0,10.6-5.4,15.5-15.9,15.5C141.2,170.2,135.2,165.2,135.2,154.6"/>
<path class="st0" d="M173.4,165.9h2.5c0.9,0,1.8-1.1,1.8-1.9v-30c0-0.9-1-2-1.8-2h-2.5v-3.9h17.2v3.9h-6v33.5h15.2l0.7-8.7h4.7v12.9
	h-31.7V165.9z"/>
<path class="st0" d="M206.9,165.9h2.5c0.9,0,1.8-1.1,1.8-1.9v-30c0-0.9-1-2-1.8-2h-2.5v-3.9h17.2v3.9h-6v33.5h15.2l0.7-8.7h4.7v12.9
	h-31.7V165.9z"/>
<rect class="st1" width="343" height="188.7"/>
</svg>
