<svg id="UoH-logo-white" xmlns="http://www.w3.org/2000/svg" width="649.997" height="357.592" viewBox="0 0 649.997 357.592">
  <defs>
    <style>
      .cls-1 {
        fill: none;
      }
    </style>
  </defs>
  <path id="Path_253" data-name="Path 253" d="M164.379,65.087l-.947,7.2h-48.7l-.948-7.2h50.6m4.359-27.667s-1.327-7.77-6.822-5.685c0,0-6.064,2.653-1.9,11.56,0,0,.758-2.843,3.411-2.653,0,0,4.927.569,2.464,6.822,0,0-1.9,4.359-5.685,3.411,0,0-5.5-.569-5.5-8.717,0,0-3.79,7.2-8.149,6.633,0,0-5.5.569-5.306-5.875,0,0,.379-4.738,4.359-5.5,0,0,4.738-.569,3.98,3.98,0,0,10.991-9.286.948-14.781a7.028,7.028,0,0,0-7.959,2.274,10.171,10.171,0,0,0,2.085-5.306s1.706-5.5-5.117-9.286h0c-6.822,3.79-5.117,9.286-5.117,9.286a10.171,10.171,0,0,0,2.085,5.306c-3.79-4.359-8.149-2.274-8.149-2.274-10.044,5.685.948,14.781.948,14.781-.948-4.548,3.98-3.98,3.98-3.98,3.98.758,4.359,5.5,4.359,5.5,0,6.443-5.5,5.875-5.5,5.875-4.738.569-8.528-6.633-8.528-6.633,0,8.149-5.5,8.717-5.5,8.717-3.79.948-5.685-3.411-5.685-3.411-2.464-6.254,2.464-6.822,2.464-6.822,2.653-.19,3.411,2.653,3.411,2.653,4.169-8.907-1.9-11.56-1.9-11.56-5.5-2.085-6.822,5.685-6.822,5.685C106.012,28.323,99,30.6,99,30.6a96.133,96.133,0,0,1,14.4,28.046h51.924a90.683,90.683,0,0,1,14.4-28.046c-.19,0-7.391-2.464-10.991,6.822M113.213,78.352h25.962v7.2H113.213s-3.6,0-3.6-3.6c0,0,0-3.6,3.6-3.6m55.335,3.6c0,3.6-3.6,3.6-3.6,3.6H138.985v-7.2h25.962c3.6,0,3.6,3.6,3.6,3.6" transform="translate(88.608 12.799)"/>
  <path id="Path_254" data-name="Path 254" d="M17.711,68.542a3.892,3.892,0,1,1,0-7.77H53.149a3.892,3.892,0,1,1,0,7.77H17.711m5.875,12.7H47.274a3.892,3.892,0,1,0,0-7.77H23.586a3.892,3.892,0,1,0,0,7.77m5.875,12.7H41.589a3.886,3.886,0,1,0,0-7.77H29.461a3.892,3.892,0,1,0,0,7.77M15.248,55.845s-5.5-4.738-.948-15.539c0,0,4.169,6.254,11.37,7.391,0,0,3.032-11.56,10.8-13.076,0,0-2.843,7.2,4.548,13.265,0,0,6.443-9.1,14.592-9.1,0,0-4.548,4.548-1.9,8.907,0,0,2.464,4.927-.379,8.149a15.269,15.269,0,0,0,8.907-3.222s5.5-3.222,3.032-15.35c0,0-1.327-8.149,11.56-11.181a32.593,32.593,0,0,0-29.752,4.169s-7.2-10.612,7.58-19.14c0,0-24.635-2.085-35.437,21.6,0,0-9.1-4.548-3.032-15.729C16.2,17-.671,23.25.846,43.148c-.379-.19,0,12.7,14.4,12.7" transform="translate(0.67 9.913)"/>
  <path id="Path_255" data-name="Path 255" d="M106.437,48.248a3.334,3.334,0,0,1-1.137-4.359,6.53,6.53,0,0,0-.948-5.5s-2.274-2.653-4.927-.758l-.189.19A3.786,3.786,0,0,0,96.962,32.9s-2.274-1.327-5.875,1.137a3.318,3.318,0,0,1-4.548-.379,6.26,6.26,0,0,0-5.5-.758s-3.222,1.327-2.274,4.548l.189.189a3.832,3.832,0,0,0-5.306.569s-1.9,1.706-.758,6.064a3.489,3.489,0,0,1-1.706,4.169s-2.653,2.085-2.464,4.927a3.809,3.809,0,0,0,3.6,3.6h.19a3.933,3.933,0,0,0-1.137,5.306s1.137,2.274,5.5,2.464a3.3,3.3,0,0,1,3.411,2.843,6.584,6.584,0,0,0,3.98,3.79s3.411.758,4.548-2.274v-.379s.948,3.6,4.548,2.653c0,0,2.653-.189,4.169-4.548a3.421,3.421,0,0,1,3.79-2.464,7.017,7.017,0,0,0,4.927-2.653s1.9-3.032-.758-4.927h-.19a3.8,3.8,0,0,0,3.98-3.6c.19.379.569-2.274-2.843-4.927m-7.2,6.822A10.793,10.793,0,0,1,89,62.46h0A11.235,11.235,0,0,1,78.769,55.07h0a10.917,10.917,0,0,1,3.98-11.939h0a10.709,10.709,0,0,1,12.507,0h0c.19,0,6.254,3.98,3.98,11.939l4.738,1.516Zm-15.16-3.222a5.117,5.117,0,1,1,5.117,5.117,5.353,5.353,0,0,1-5.117-5.117m44.344-5.117s-2.085-6.254-8.338-4.927c0,0,5.685-3.032,3.6-8.907,0,0-2.843-7.959-10.991-6.064,0,0-3.411.379-4.927-.948l-1.137,1.706,1.137-1.706s-1.706-.948-2.464-4.359c0,0-.758-8.338-9.1-8.528,0,0-6.633,0-7.391,6.254,0,0-1.137-6.254-7.2-6.254,0,0-8.338.19-9.1,8.528,0,0-.758,3.222-2.464,4.359h0s-1.516,1.327-4.927.948c0,0-8.149-1.9-10.991,6.064,0,0-2.085,6.254,3.79,8.907,0,0-6.443-.758-8.149,4.927,0,0-2.464,7.959,5.306,11.37,0,0,3.032,1.706,3.411,3.6h0s.758,1.9-.569,4.927c0,0-4.359,7.2,2.274,12.318,0,0,5.306,3.98,9.665-.758,0,0-2.653,5.875,2.274,9.286,0,0,6.822,4.738,12.507-1.516,0,0,2.464-2.274,4.548-2.085v0s2.085-.189,4.548,2.085c0,0,5.5,6.254,12.507,1.516,0,0,5.306-3.79,2.274-9.475,0,0,4.738,4.359,9.665.758,0,0,6.633-5.117,2.274-12.318,0,0-1.327-3.032-.569-4.927l-2.274-.758,2.274.758s.379-1.9,3.411-3.6c-.189.189,7.58-3.222,5.117-11.181m-10.8,7.959a5.737,5.737,0,0,1-5.875,4.548h0c.379.189,3.98,3.032,2.085,7.012a7.061,7.061,0,0,1-8.149,3.6,3.862,3.862,0,0,0-4.548,3.222s-.758,6.064-6.064,6.633A5.649,5.649,0,0,1,89,75.536h0c0,.19-1.516,4.738-6.064,4.169a7.21,7.21,0,0,1-6.064-6.633s-.379-3.6-4.548-3.222c0,0-5.875,1.137-8.149-3.6a5.488,5.488,0,0,1,2.085-7.012h0c-.19,0-4.927,0-5.875-4.548a7.325,7.325,0,0,1,4.548-7.77,3.782,3.782,0,0,0,1.706-5.306s-3.032-5.306.948-8.907a5.684,5.684,0,0,1,7.391-.19h0c-.189-.379-1.516-4.738,2.464-7.012a7.057,7.057,0,0,1,8.717,1.9,3.816,3.816,0,0,0,5.5,0s4.169-4.548,8.717-1.9a5.68,5.68,0,0,1,2.464,7.012h0c.19-.19,3.98-3.032,7.391.19a7.108,7.108,0,0,1,.948,8.907,3.776,3.776,0,0,0,1.706,5.306c.379,0,5.875,2.464,4.738,7.77" transform="translate(44.219 11.635)"/>
  <path id="Path_256" data-name="Path 256" d="M218.392,22.9c-1.327-6.443-5.685-7.012-7.58-7.012v2.274a2.278,2.278,0,1,1-2.085,2.274,2.465,2.465,0,0,1,2.085-2.464V15.7c-5.685-.19-5.5,4.548-5.5,4.548a15.912,15.912,0,0,1-4.169,2.085,3.239,3.239,0,0,0-.948,2.274v.948c5.117-2.085,6.443-1.137,6.443-1.137l.948.758c1.327,1.706,1.706,5.5,1.706,5.5-.948,7.391-7.2,7.391-6.254,18,.758,17.055,23.688,21.414,23.688,21.414,1.327,2.653-1.706,8.338-1.706,8.338-.379.948-1.137.948-3.98.379a10.91,10.91,0,0,1-2.464-.569c-4.738-1.706-3.032,3.411-3.032,3.411h17.245c1.327-4.738-1.9-3.222-1.9-3.222-3.222,1.516-2.843-.189-2.843-.189a21.209,21.209,0,0,1,3.411-8.338c-40.175-24.256-13.455-31.458-13.455-31.458s-18.192,9.1,22.551,31.268c10.233,6.254,10.612,6.443,13.834,8.149,2.274,1.516,2.843.569,2.843.569.379-.758-.758-1.9-.758-1.9l-9.475-11.749c12.507,7.959,18,12.128,18,12.128,5.875,2.464,14.592-5.5,3.222-10.233C220.856,41.286,218.392,22.9,218.392,22.9" transform="translate(179.186 14.049)"/>
  <path id="Path_257" data-name="Path 257" d="M216.855,36.552s-8.338-2.274-14.4,6.443c0,0-4.927,6.254-5.685,19.14h-5.117a89.723,89.723,0,0,1,2.464-16.3s1.327-4.927,2.843-13.265c0,0,1.516-7.2-.758-12.507,0,0-2.843-8.338-8.149-7.959-5.306-.379-8.149,7.959-8.149,7.959-2.274,5.5-.758,12.507-.758,12.507,1.516,8.338,2.843,13.265,2.843,13.265a81.228,81.228,0,0,1,2.653,16.3h-5.117c-.758-13.076-5.685-19.14-5.685-19.14-6.064-8.717-14.4-6.443-14.4-6.443-10.423,2.464-10.233,12.7-10.233,12.7-.19,9.1,5.306,12.128,5.306,12.128a14.917,14.917,0,0,0,9.854,2.085,20.4,20.4,0,0,1-2.653-3.222,4.729,4.729,0,0,1,1.706-6.254c3.6-1.9,6.633,1.327,6.633,1.327a14.672,14.672,0,0,1,3.6,6.822h-3.79c-3.411,0-3.411,3.98-3.411,3.98,0,3.98,3.411,3.98,3.411,3.98h3.79a3.986,3.986,0,0,1-4.169,3.79c-3.79,0-6.254-4.927-6.254-4.927a7.62,7.62,0,0,0-1.706,6.633c1.326,6.633,7.959,6.443,7.959,6.443,9.665,0,10.044-11.56,10.044-11.56h4.927c-1.137,13.076-7.2,15.35-7.2,15.35,2.653,6.633,10.612,6.254,10.612,6.254s7.959.379,10.612-6.254c0,0-6.254-2.274-7.2-15.35H196.2s.379,11.749,10.044,11.56c0,0,6.633.189,7.959-6.443a7.738,7.738,0,0,0-1.706-6.633s-2.464,4.927-6.064,4.927a3.819,3.819,0,0,1-4.169-3.79h3.79s3.411,0,3.411-3.98c0,0,0-3.98-3.411-3.98h-3.79a13.874,13.874,0,0,1,3.6-6.822s3.032-3.222,6.633-1.327c0,0,3.6,1.9,1.706,6.254a20.4,20.4,0,0,1-2.653,3.222,14.917,14.917,0,0,0,9.854-2.085s5.5-3.032,5.306-12.128c.379,0,.758-10.233-9.854-12.7" transform="translate(133.537 10.824)"/>
  <path id="Path_258" data-name="Path 258" d="M8.349,124.618V85.581a4.052,4.052,0,0,0-3.6-3.79H.2V74.4H31.089v7.391H21.235v43.4c0,15.729,7.77,19.708,19.14,19.708,11.181,0,18.95-3.79,18.95-19.708v-43.4H49.471V74.4H77.138v7.391H72.59c-1.706,0-3.411,2.085-3.411,3.79v39.038c0,20.087-10.233,29.373-30.131,29.373-19.14,0-30.7-9.286-30.7-29.373" transform="translate(0.179 66.59)"/>
  <path id="Path_259" data-name="Path 259" d="M42.7,146.032h4.738c1.706,0,3.411-2.085,3.411-3.6V85.581c0-1.706-1.9-3.79-3.411-3.79H42.7V74.4H64.682l36.2,57.609h.379V81.791H91.4V74.4h27.857v7.391h-4.548c-1.706,0-3.411,2.085-3.411,3.79v67.653H100.12L61.271,92.024h-.379v54.008H70.936v7.2H42.7Z" transform="translate(38.218 66.59)"/>
  <path id="Path_260" data-name="Path 260" d="M84.9,146.032h5.685c1.9,0,3.411-2.085,3.411-3.6V85.581c0-1.706-1.706-3.79-3.411-3.79H84.9V74.4h31.268v7.391h-5.685c-1.9,0-3.411,2.085-3.411,3.79v56.851c0,1.516,1.706,3.6,3.411,3.6h5.685v7.2H84.9Z" transform="translate(75.988 66.59)"/>
  <path id="Path_261" data-name="Path 261" d="M110.5,85.67c-.758-1.9-2.653-3.79-4.548-3.79H103.3V74.49h30.131V81.88h-9.854l19.9,58.367h.189l18-51.166c1.706-4.738.569-7.391-3.79-7.391H152.95V74.3h27.478v7.391h-2.464a5.42,5.42,0,0,0-4.927,3.98L148.4,153.133H134.379Z" transform="translate(92.457 66.501)"/>
  <path id="Path_262" data-name="Path 262" d="M145.9,146.032h4.738c1.705,0,3.411-2.085,3.411-3.6V85.581c0-1.706-1.9-3.79-3.411-3.79H145.9V74.4h60.831V95.435h-8.149l-1.327-12.886H166.935v26.72h15.35l.948-9.286h7.959v26.53h-7.959l-.948-9.286h-15.35v28.425H198.2l1.327-14.4h8.528v21.982H145.9Z" transform="translate(130.586 66.59)"/>
  <path id="Path_263" data-name="Path 263" d="M211.937,110.974c12.128,0,16.676-4.548,16.676-14.023,0-10.044-4.927-14.592-16.676-14.592H201.324v28.8h10.612ZM180.1,146.032h4.738c1.706,0,3.411-2.085,3.411-3.6V85.581c0-1.706-1.9-3.79-3.411-3.79H180.1V74.4h32.216c18,0,29.752,6.254,29.752,21.793,0,11.181-7.012,16.487-17.624,18.382v.379c7.959,1.706,12.507,4.927,15.918,17.624L243.2,143a3.7,3.7,0,0,0,3.222,3.032h3.79v7.2H231.834l-4.359-21.224c-2.085-10.233-6.064-13.265-16.3-13.265h-9.854v27.288h10.044v7.2H180.1v-7.2Z" transform="translate(161.196 66.59)"/>
  <path id="Path_264" data-name="Path 264" d="M229.433,150.838c-.758,0-1.516,1.327-1.706,2.843H219.2v-22.93h8.907l1.137,9.475c3.98,3.79,7.959,5.875,16.487,5.875,9.1,0,14.971-4.169,14.971-12.886,0-10.612-7.959-11.939-19.329-15.16-13.834-3.79-20.656-9.665-20.656-22.93,0-14.213,10.423-21.224,25.014-21.224,7.959,0,11.939,2.085,14.213,3.222.758,0,1.516-1.327,1.706-2.464H269.8V95.5H261.08l-1.137-7.959c-2.843-2.653-6.633-5.5-14.213-5.5-8.149,0-13.834,3.222-13.834,11.749,0,9.286,7.2,10.8,18,13.644,15.16,3.98,22.74,8.907,22.74,23.5,0,15.16-9.286,23.119-26.53,23.119-9.1.379-13.644-1.516-16.676-3.222" transform="translate(196.192 66.143)"/>
  <path id="Path_265" data-name="Path 265" d="M249.5,146.032h5.685c1.705,0,3.411-2.085,3.411-3.6V85.581c0-1.706-1.706-3.79-3.411-3.79H249.5V74.4h31.268v7.391h-5.685c-1.9,0-3.411,2.085-3.411,3.79v56.851c0,1.516,1.706,3.6,3.411,3.6h5.685v7.2H249.5Z" transform="translate(223.311 66.59)"/>
  <path id="Path_266" data-name="Path 266" d="M286.024,146.032h5.5c1.9,0,3.411-2.085,3.411-3.6V82.17H278.065l-1.137,16.676H268.4V74.4h65.947V98.846H325.82L324.683,82.17H307.817v60.262c0,1.516,1.706,3.6,3.411,3.6h5.5v7.2H285.834v-7.2Z" transform="translate(240.227 66.59)"/>
  <path id="Path_267" data-name="Path 267" d="M325.877,146.032h5.5c1.706,0,3.411-2.085,3.411-3.6V120.639L312.8,85.2c-1.327-1.9-2.843-3.411-4.927-3.411H305.6V74.4h29.184v7.391H325.5l17.624,28.994h.19l13.076-21.6c2.843-4.738.948-7.391-3.6-7.391h-3.6V74.4h27.1v7.391H374.2c-2.085,0-3.79,1.516-5.117,3.6L347.859,120.07v22.361c0,1.516,1.706,3.6,3.411,3.6h5.5v7.2H325.877v-7.2Z" transform="translate(273.523 66.59)"/>
  <path id="Path_268" data-name="Path 268" d="M62.868,168.254c0-21.035-10.233-31.458-24.067-31.458-14.023,0-24.256,10.612-24.256,31.458S24.777,199.711,38.8,199.711c13.834-.19,24.067-10.612,24.067-31.458M.9,167.875C.9,141.913,18.334,127.7,38.8,127.7s37.711,14.213,37.711,40.175S59.078,208.049,38.8,208.049C18.334,208.239.9,194.026.9,167.875" transform="translate(0.806 114.296)"/>
  <path id="Path_269" data-name="Path 269" d="M41.5,199.732h4.738c1.706,0,3.411-2.085,3.411-3.6V139.281c0-1.706-1.9-3.79-3.411-3.79H41.5V128.1h60.262v21.6H93.613L92.1,136.059H62.914v28.425H77.885l.948-9.665H86.6v27.288h-7.77l-.948-10.044H62.914v27.288H72.958v7.2H41.5Z" transform="translate(37.144 114.654)"/>
  <path id="Path_270" data-name="Path 270" d="M87.7,199.732h4.738c1.706,0,3.411-2.085,3.411-3.6V139.281c0-1.706-1.9-3.79-3.411-3.79H87.7V128.1h31.268v7.391h-9.854v27.1h35.437v-27.1H134.507V128.1h31.458v7.391h-4.738c-1.706,0-3.6,2.085-3.6,3.79v56.851a4.22,4.22,0,0,0,3.6,3.6h4.738v7.2H134.507v-7.2h10.044V170.359H109.114v29.373h10.044v7.2H87.7Z" transform="translate(78.495 114.654)"/>
  <path id="Path_271" data-name="Path 271" d="M139.049,178.318V139.281a4.052,4.052,0,0,0-3.6-3.79H130.9V128.1h30.889v7.391h-9.854v43.586c0,15.729,7.77,19.708,19.14,19.708,11.181,0,18.95-3.79,18.95-19.708v-43.4h-9.854V128.29h27.668v7.391H203.29c-1.706,0-3.411,2.085-3.411,3.79v39.038c0,20.087-10.233,29.373-30.131,29.373-19.329,0-30.7-9.475-30.7-29.562" transform="translate(117.16 114.654)"/>
  <path id="Path_272" data-name="Path 272" d="M173.4,199.732h4.738c1.706,0,3.411-2.085,3.411-3.6V139.281c0-1.706-1.9-3.79-3.411-3.79H173.4V128.1h32.595v7.391h-11.37v63.484h28.8l1.327-16.487h8.907v24.446H173.589v-7.2Z" transform="translate(155.199 114.654)"/>
  <path id="Path_273" data-name="Path 273" d="M206.9,199.732h4.738c1.706,0,3.411-2.085,3.411-3.6V139.281c0-1.706-1.9-3.79-3.411-3.79H206.9V128.1h32.595v7.391h-11.37v63.484h28.8l1.327-16.487h8.907v24.446H207.089v-7.2Z" transform="translate(185.183 114.654)"/>
  <rect id="Rectangle_654" data-name="Rectangle 654" class="cls-1" width="649.997" height="357.592"/>
</svg>
